<?xml version="1.0" encoding="utf-8"?>
<!-- Generator: Adobe Illustrator 16.0.0, SVG Export Plug-In . SVG Version: 6.00 Build 0)  -->
<!DOCTYPE svg PUBLIC "-//W3C//DTD SVG 1.1//EN" "http://www.w3.org/Graphics/SVG/1.1/DTD/svg11.dtd">
<svg version="1.1" id="Layer_1_xA0_Image_1_" xmlns="http://www.w3.org/2000/svg" xmlns:xlink="http://www.w3.org/1999/xlink"
	 x="0px" y="0px" width="612px" height="792px" viewBox="0 0 612 792" enable-background="new 0 0 612 792" xml:space="preserve">
<g>
	<path fill-rule="evenodd" clip-rule="evenodd" fill="#FFFFFF" d="M288.081,531.508c-58.12,0-116.24-0.017-174.36,0.012
		c-13.333,0.006-24.985-4.253-35.026-13.08c-9.756-8.576-15.883-19.105-17.665-32.021c-0.471-3.412-0.775-6.877-0.777-10.318
		c-0.046-60.628-0.012-121.256-0.052-181.884c-0.007-11.312,2.561-21.891,8.931-31.278c6.205-9.144,14.336-16.057,24.77-20.177
		c7.458-2.945,15.161-3.966,23.089-3.966c115.03,0.007,230.059-0.068,345.087,0.087c16.252,0.021,29.895,6.563,40.569,19.085
		c8.666,10.165,12.591,21.921,12.589,35.149c-0.009,61.493-0.039,122.986,0.022,184.479c0.015,14.803-4.969,27.588-15.268,38.078
		c-6.598,6.722-14.382,11.735-23.813,13.957c-4.896,1.154-9.74,1.909-14.775,1.904C403.629,531.491,345.854,531.508,288.081,531.508
		z M287.544,518.121c57.431,0,114.862,0.03,172.294-0.06c4.446-0.007,9.072-0.226,13.3-1.439
		c10.217-2.934,17.905-9.482,23.438-18.518c4.199-6.857,5.275-14.443,5.265-22.355c-0.061-44.977-0.024-89.953-0.031-134.929
		c-0.002-16.693,0.17-33.389-0.108-50.078c-0.234-14.049-7.293-24.551-18.612-32.252c-7.116-4.841-15.307-6.299-23.834-6.297
		c-113.998,0.021-227.997,0.017-341.995,0.005c-5.079,0-10.027,0.548-14.966,1.919c-9.667,2.684-16.711,8.785-22.222,16.747
		c-4.96,7.166-6.47,15.408-6.463,24.052c0.047,59.854,0.004,119.707,0.069,179.56c0.004,4.126,0.171,8.358,1.077,12.356
		c3.245,14.332,12.217,23.804,25.769,29.138c5.257,2.069,10.76,2.154,16.284,2.154C173.719,518.121,230.631,518.121,287.544,518.121
		z"/>
	<path fill-rule="evenodd" clip-rule="evenodd" fill="#FFFFFF" d="M322.277,480.725c-9.285,0-18.095,0.027-26.904-0.07
		c-0.503-0.006-1.139-0.955-1.447-1.595c-0.237-0.493-0.063-1.188-0.063-1.794c0-29.751-0.001-59.503,0.001-89.255
		c0-3.843,0.009-3.844,3.859-3.845c7.265,0,14.532,0.084,21.794-0.05c2.228-0.042,2.815,0.747,2.792,2.83
		c-0.086,7.437-0.038,14.876-0.024,22.313c0.001,0.904,0.098,1.809,0.178,3.18c1.111-0.655,1.833-1.027,2.5-1.481
		c5.068-3.454,10.656-3.31,16.022-1.479c10.384,3.544,14.975,11.897,15.378,22.139c0.616,15.631,0.296,31.298,0.427,46.948
		c0.014,1.736-0.677,2.208-2.312,2.196c-7.957-0.06-15.914-0.079-23.87,0.013c-1.901,0.021-2.299-0.722-2.291-2.435
		c0.055-11.503,0.04-23.006,0.012-34.509c-0.004-1.461,0.074-3.037-0.438-4.343c-0.368-0.938-1.599-1.984-2.552-2.102
		c-0.734-0.091-2.019,1.03-2.378,1.896c-0.539,1.302-0.65,2.849-0.656,4.292c-0.048,11.244-0.027,22.487-0.027,33.73
		C322.277,478.327,322.277,479.349,322.277,480.725z"/>
	<path fill-rule="evenodd" clip-rule="evenodd" fill="#FFFFFF" d="M441.896,481.776c0-9.632,0-18.763,0-28.268
		c1.405,0.488,2.614,0.767,3.692,1.308c5.981,3,13.953-4.204,12.351-11.114c-0.922-3.979-4.346-8.386-10.771-8
		c-4.81,0.289-8.032,3.268-8.732,8.497c-0.32,2.394-0.503,4.822-0.51,7.236c-0.042,17.299-0.076,34.598,0.035,51.896
		c0.017,2.628-0.707,3.391-3.345,3.317c-6.827-0.189-13.665-0.122-20.497-0.026c-1.918,0.026-2.526-0.564-2.52-2.506
		c0.063-18.076-0.081-36.155,0.102-54.231c0.068-6.812,0.876-13.573,3.829-19.937c4.001-8.624,10.732-14.142,19.247-17.84
		c6.329-2.75,13.032-2.804,19.56-1.858c7.91,1.145,14.806,4.9,20.394,10.793c8.622,9.094,11.427,20.075,9.166,32.05
		c-2.156,11.423-9.114,19.8-19.319,25.338c-3.7,2.009-7.655,3.404-11.985,3.353C449.115,481.743,445.637,481.776,441.896,481.776z"
		/>
	<path fill-rule="evenodd" clip-rule="evenodd" fill="#FFFFFF" d="M101.894,436.091c0.802-0.036,1.644-0.104,2.485-0.105
		c9.253-0.008,18.507,0.037,27.76-0.039c1.845-0.015,2.536,0.436,2.615,2.432c0.259,6.571,3.384,9.987,9.859,11.202
		c1.353,0.254,2.689,0.631,4.052,0.794c1.101,0.132,2.23,0.026,3.921,0.026c0-3.301,0-6.449,0-9.597c0-4.822,0-4.822,4.777-4.822
		c9.333,0,18.667,0,28.436,0c0,3.747-0.005,7.347,0.001,10.945c0.006,3.474,0.011,3.479,3.372,3.481
		c8.821,0.004,17.643,0.066,26.462-0.044c2.203-0.027,2.818,0.738,2.797,2.84c-0.085,8.646-0.084,17.296,0,25.942
		c0.02,2.032-0.627,2.676-2.686,2.668c-24.819-0.098-49.644,0.199-74.455-0.276c-13.016-0.25-23.327-6.721-31.114-17.07
		c-5.708-7.586-8.916-16.077-8.705-25.697c0.013-0.604,0.017-1.212,0.075-1.812C101.571,436.717,101.729,436.488,101.894,436.091z"
		/>
	<path fill-rule="evenodd" clip-rule="evenodd" fill="#FFFFFF" d="M378.791,295.602c19.336-0.754,36.15,15.922,36.238,35.787
		c0.085,19.222-14.778,36.271-36.515,36.594c-19.001,0.283-36.215-14.992-36.759-35.838
		C341.264,313.247,357.123,295.125,378.791,295.602z M377.669,321.548c-6.15-0.155-9.391,5.704-9.172,10.49
		c0.271,5.915,4.858,10.25,10.229,9.858c5.817-0.425,10.229-5.235,9.669-10.772C387.883,326.062,384.717,320.923,377.669,321.548z"
		/>
	<path fill-rule="evenodd" clip-rule="evenodd" fill="#FFFFFF" d="M102.785,372.549c0-10.066-0.023-19.828,0.066-29.588
		c0.005-0.521,0.882-1.219,1.504-1.495c0.579-0.258,1.359-0.066,2.05-0.066c36.128,0,72.256-0.001,108.384,0
		c3.597,0,3.605,0.003,3.607,3.48c0.006,8.297-0.055,16.595,0.04,24.891c0.024,2.145-0.445,3.029-2.847,3.024
		c-36.733-0.073-73.466-0.049-110.198-0.058C104.633,372.737,103.875,372.631,102.785,372.549z"/>
	<path fill-rule="evenodd" clip-rule="evenodd" fill="#FFFFFF" d="M102.939,322.742c0-10.341,0-20.504,0-31.001
		c0.904-0.058,1.809-0.165,2.714-0.166c36.562-0.008,73.124,0.014,109.685-0.057c2.368-0.004,3.143,0.631,3.108,3.035
		c-0.124,8.469-0.109,16.941-0.007,25.41c0.026,2.187-0.512,2.994-2.877,2.989c-36.648-0.072-73.296-0.049-109.944-0.057
		C104.775,322.896,103.933,322.802,102.939,322.742z"/>
	<path fill-rule="evenodd" clip-rule="evenodd" fill="#FFFFFF" d="M333.69,367.385c-9.053,0.772-16.786-1.613-23.872-6.689
		c-9.052-6.486-13.198-15.49-14.083-26.283c-0.218-2.667-0.421-5.346-0.427-8.02c-0.038-17.372,0.027-34.744-0.07-52.115
		c-0.014-2.596,0.711-3.43,3.371-3.354c6.649,0.19,13.31,0.162,19.961,0.01c2.372-0.054,2.962,0.869,2.939,3.014
		c-0.075,7,0.078,14.003-0.083,21c-0.056,2.464,0.791,3.17,3.104,2.977c2.061-0.172,4.152,0.065,6.218-0.065
		c1.852-0.117,2.623,0.402,2.595,2.424c-0.101,7.518-0.087,15.038-0.01,22.556c0.021,2.08-0.982,2.776-2.816,2.789
		c-2.247,0.016-4.495,0.056-6.74-0.001c-1.642-0.042-2.455,0.531-2.174,2.285c0.273,1.704,0.345,3.452,0.744,5.123
		c0.92,3.858,3.301,5.902,7.285,6.488c4.058,0.597,4.059,0.597,4.059,4.785c0.001,6.741,0,13.482,0,20.224
		C333.69,365.457,333.69,366.383,333.69,367.385z"/>
	<path fill-rule="evenodd" clip-rule="evenodd" fill="#FFFFFF" d="M133.902,422.381c0-8.553,0-16.839,0-25.125
		c0-6.024,0-6.024,5.924-6.024c25.059,0,50.118-0.001,75.176,0.001c3.382,0,3.392,0.006,3.394,3.444
		c0.005,8.468-0.04,16.936,0.03,25.404c0.016,1.893-0.594,2.543-2.53,2.539c-26.528-0.052-53.056-0.033-79.583-0.042
		C135.64,422.577,134.966,422.471,133.902,422.381z"/>
	<path fill-rule="evenodd" clip-rule="evenodd" fill="#FFFFFF" d="M233.782,467.602c-0.002-3.976,0.15-7.959-0.056-11.925
		c-0.135-2.585,0.81-3.355,3.254-3.129c1.341,0.124,2.771-0.046,4.082-0.383c4.542-1.17,5.262-4.981,5.743-8.81
		c0.441-3.51,0.648-7.049,1.027-10.566c1.044-9.711,6.829-15.876,15.356-19.59c6.858-2.987,14.278-2.625,21.577-2.414
		c0.626,0.018,1.736,1.217,1.746,1.879c0.12,8.556,0.067,17.113,0.094,25.67c0.004,1.277-0.433,1.864-1.781,1.941
		c-1.102,0.064-2.175,0.566-3.279,0.676c-2.449,0.24-3.691,1.714-4.129,3.939c-0.618,3.129-1.113,6.28-1.653,9.424
		c-1.7,9.88-7.103,17.029-15.386,22.638c-7.77,5.26-16.249,5.905-25.062,5.65c-0.529-0.016-1.438-1.313-1.462-2.038
		C233.714,476.247,233.784,471.924,233.782,467.602z"/>
	<path fill-rule="evenodd" clip-rule="evenodd" fill="#FFFFFF" d="M239.145,368.9c0-1.84,0-2.86,0-3.879
		c0.001-7.177,0.03-14.354-0.016-21.53c-0.012-1.954,0.447-2.968,2.754-2.993c6.649-0.074,9.672-3.158,10.363-9.871
		c0.521-5.061,0.815-10.207,2.006-15.122c1.704-7.033,6.517-11.565,13.109-14.603c6.495-2.992,13.241-3.162,20.114-3.01
		c0.756,0.017,1.511,0.088,2.545,0.151c0,1.427,0,2.702,0,3.977c0,6.917-0.055,13.835,0.034,20.751
		c0.025,1.948-0.603,2.776-2.595,2.979c-4.651,0.472-6.001,1.73-7.005,6.395c-1.033,4.796-1.601,9.716-2.959,14.413
		c-1.715,5.929-4.864,11.087-9.989,14.866c-4.451,3.283-9.201,5.687-14.819,6.143C248.34,367.92,244.005,368.416,239.145,368.9z"/>
	<path fill-rule="evenodd" clip-rule="evenodd" fill="#FFFFFF" d="M464.008,323.681c-1.458-0.327-2.748-0.8-4.061-0.878
		c-3.781-0.224-6.027,1.278-6.979,4.995c-0.613,2.398-0.898,4.937-0.928,7.417c-0.104,9.248-0.042,18.498-0.042,27.748
		c0,1.027,0,2.054,0,3.266c-8.721,0-17.228,0-25.846,0c-0.084-0.444-0.23-0.854-0.229-1.264c0.073-13.656-0.184-27.325,0.367-40.962
		c0.378-9.34,4.194-17.438,12.008-23.173c5.512-4.046,11.814-5.416,18.528-5.229c7.378,0.205,7.378,0.225,7.378,7.587
		c0,6.137,0.005,12.274-0.01,18.412C464.194,322.265,464.079,322.93,464.008,323.681z"/>
	<path fill-rule="evenodd" clip-rule="evenodd" fill="#FFFFFF" d="M397.822,411.061c0,23.317,0,46.282,0,69.471
		c-0.813,0.073-1.557,0.195-2.301,0.196c-7.003,0.015-14.006-0.049-21.008,0.047c-1.944,0.026-2.728-0.427-2.721-2.562
		c0.07-21.526,0.066-43.054,0.004-64.581c-0.006-2.036,0.58-2.65,2.644-2.618C382.12,411.133,389.803,411.061,397.822,411.061z"/>
	<path fill-rule="evenodd" clip-rule="evenodd" fill="#FFFFFF" d="M111.907,391.233c8.118-0.618,14.822,7.085,14.743,15.692
		c-0.077,8.374-6.363,15.704-14.888,15.729c-8.779,0.025-15.432-8.417-15.458-15.73C96.276,399.172,103.326,390.548,111.907,391.233
		z"/>
	<path fill-rule="evenodd" clip-rule="evenodd" fill="#FFFFFF" d="M384.803,404.831c-7.518,0.599-13.145-5.929-12.928-12.244
		c0.235-6.85,5.951-12.654,12.911-12.668c7.163-0.015,13.026,5.762,13.21,12.633C398.159,398.61,392.91,405.47,384.803,404.831z"/>
</g>
</svg>
